<?xml version="1.0" encoding="UTF-8"?>
<svg id="Layer_1" xmlns="http://www.w3.org/2000/svg" viewBox="0 0 776.48 516.64">
  <defs>
    <style>
      .cls-1 {
        fill: #fff;
        fill-rule: evenodd;
      }
    </style>
  </defs>
  <path class="cls-1" d="M740.25,359.03c3.27,1.87,6.54,2.69,10.04,2.69h.11c3.51,0,6.79-.82,10.05-2.69,3.19-1.68,5.8-4.29,7.48-7.48,1.76-3.05,2.69-6.52,2.68-10.05,0-3.62-.82-7.01-2.68-10.28-1.76-3.27-4.33-5.72-7.6-7.48-3.27-1.75-6.54-2.68-9.94-2.68h-.11c-3.47.1-6.88,1.02-9.93,2.68-3.27,1.76-5.72,4.21-7.6,7.48-1.79,3.13-2.72,6.68-2.68,10.28,0,3.39.82,6.78,2.68,10.05,1.68,3.19,4.29,5.8,7.48,7.48h0ZM735.7,332.97c1.48-2.65,3.66-4.83,6.31-6.31,2.68-1.4,5.49-2.22,8.29-2.22h.11c2.81,0,5.61.81,8.3,2.22,2.65,1.48,4.83,3.67,6.31,6.31,1.52,2.69,2.22,5.49,2.22,8.53.01,2.95-.75,5.85-2.22,8.41-1.44,2.61-3.58,4.76-6.19,6.19-2.56,1.47-5.46,2.23-8.41,2.22h-.11c-2.95.01-5.85-.75-8.41-2.22-2.6-1.44-4.75-3.59-6.18-6.19-1.52-2.69-2.34-5.49-2.34-8.41-.01-3.04.81-5.84,2.33-8.53h0Z"/>
  <path class="cls-1" d="M744.92,343.37h2.1c1.29,0,2.22.24,2.81.82.24.12.36.24.47.35.93.82,1.99,2.46,3.27,4.68l1.99,3.5h4.21l-2.57-4.32c-1.29-1.99-2.46-3.51-3.27-4.32-.54-.51-1.18-.9-1.87-1.17,1.87-.12,3.39-.82,4.56-1.99s1.76-2.57,1.76-4.21c0-1.17-.36-2.22-1.05-3.15-.65-1.01-1.65-1.76-2.81-2.1-.93-.35-2.33-.59-4.21-.59-.35,0-.82-.12-1.28-.12h-7.6v21.96h3.5v-9.34h0,0ZM744.92,333.79h5.37c1.05.12,1.75.24,2.22.35.64.18,1.18.6,1.51,1.17.35.46.47,1.05.47,1.76.03.9-.36,1.76-1.05,2.33-.59.59-1.64.82-3.15.94h-5.37v-6.55h0,0ZM220.23,336.24h31.55l-31.55-52.58-26.64-44.28-113.21,67.99,17.29,28.86h122.56,0ZM513.71,336.24h154.11l-95.93-159.82L465.81,0l-43.7,26.29-69.4,41.71,69.4,115.55,91.6,152.7ZM459.86,388.94c-10.87-7.01-23.61-11.1-37.39-11.1h-.35c-38.08.23-69.04,31.31-69.04,69.4s30.96,69.17,69.04,69.4h.35c13.79,0,26.52-4.09,37.39-11.1v7.24h31.89v-176.53h-31.89v52.69ZM459.86,454.48c-3.39,17.53-18.93,30.96-37.39,30.96h-.35c-20.91-.23-37.85-17.29-37.85-38.2s16.94-37.97,37.85-38.09h.35c18.46,0,34,13.32,37.39,30.85v14.49ZM609.63,388.94c-11.12-7.26-24.11-11.11-37.39-11.1h-.36c-38.08.23-69.04,31.31-69.04,69.4s30.96,69.17,69.04,69.4h.36c13.79,0,26.64-4.09,37.39-11.1v7.24h31.9v-131.44h-31.9v7.6h0ZM609.63,454.48c-3.39,17.53-18.93,30.96-37.39,30.96h-.36c-20.91-.23-37.85-17.29-37.85-38.2s16.94-37.97,37.85-38.09h.36c18.46,0,34,13.32,37.39,30.85v14.49ZM754.97,438.59c-1.17-.59-2.81-1.17-4.68-1.87-7.13-2.45-18.69-5.49-34.82-8.99-14.14-3.16-21.26-7.24-21.26-12.38,0-3.62,1.28-6.55,3.74-8.65,3.27-2.81,9.11-4.21,17.53-4.21s14.72,1.87,18.34,5.49c2.22,2.22,3.85,6.19,4.91,11.8h33.88c0-16.59-6.78-28.5-20.1-35.75-.7-.46-1.45-.85-2.22-1.17-9.23-4.32-21.5-6.55-36.8-6.55-18.58,0-32.6,4.91-41.94,14.84-7.47,7.94-11.1,17.64-11.1,29.09,0,14.26,7.01,24.54,21.26,31.2,5.37,2.57,18.46,6.19,39.26,10.63,13.9,3.04,20.91,7.36,20.91,12.85,0,3.27-1.39,6.08-4.43,8.65-3.86,3.27-9.7,4.91-17.53,4.91-10.4,0-17.76-1.75-22.08-5.14-4.33-3.27-6.55-8.06-6.55-14.14h-35.51c0,16.12,6.78,28.16,20.44,36.1,10.87,6.19,25.12,9.35,42.77,9.35,11.8,0,22.31-1.99,31.31-5.84,1.87-.82,3.51-1.64,5.26-2.57,13.9-7.71,20.91-19.98,20.91-36.8,0-13.8-7.14-24.08-21.5-30.86ZM106.78,388.94c-11.17-7.24-24.19-11.1-37.5-11.1h-.35c-37.97.23-68.93,31.31-68.93,69.4s30.96,69.17,68.93,69.4h.35c13.79,0,26.64-4.09,37.5-11.1v7.24h31.9v-131.44h-31.9v7.6h0ZM106.78,454.48c-3.39,17.53-18.93,30.96-37.5,30.96h-.35c-20.79-.23-37.73-17.29-37.73-38.2s16.94-37.97,37.73-38.09h.35c18.58,0,34.12,13.32,37.5,30.85v14.49ZM305.87,367.44h34.7v-30.5h-34.7v30.5ZM305.87,512.78h34.7v-134.94h-34.7v134.94ZM258.08,388.94c-11.17-7.24-24.2-11.1-37.51-11.1h-.35c-38.09.23-69.05,31.31-69.05,69.4s30.96,69.17,69.05,69.4h.35c13.31,0,26.34-3.86,37.51-11.1v7.24h31.9v-176.53h-31.9v52.69h0ZM258.08,454.48c-3.39,17.53-18.93,30.96-37.51,30.96h-.35c-20.91-.23-37.86-17.29-37.86-38.2s16.94-37.97,37.86-38.09h.35c18.58,0,34.12,13.32,37.51,30.85v14.49h0ZM459.73,336.24l-37.62-62.85-92.41-153.75-109.47,65.89-3.74,2.22,3.74,6.19,85.52,142.3h153.99Z"/>
</svg>